%TF.GenerationSoftware,KiCad,Pcbnew,8.0.7*%
%TF.CreationDate,2025-06-14T22:59:42+12:00*%
%TF.ProjectId,heli_avionics,68656c69-5f61-4766-996f-6e6963732e6b,rev?*%
%TF.SameCoordinates,Original*%
%TF.FileFunction,Paste,Top*%
%TF.FilePolarity,Positive*%
%FSLAX46Y46*%
G04 Gerber Fmt 4.6, Leading zero omitted, Abs format (unit mm)*
G04 Created by KiCad (PCBNEW 8.0.7) date 2025-06-14 22:59:42*
%MOMM*%
%LPD*%
G01*
G04 APERTURE LIST*
G04 Aperture macros list*
%AMRoundRect*
0 Rectangle with rounded corners*
0 $1 Rounding radius*
0 $2 $3 $4 $5 $6 $7 $8 $9 X,Y pos of 4 corners*
0 Add a 4 corners polygon primitive as box body*
4,1,4,$2,$3,$4,$5,$6,$7,$8,$9,$2,$3,0*
0 Add four circle primitives for the rounded corners*
1,1,$1+$1,$2,$3*
1,1,$1+$1,$4,$5*
1,1,$1+$1,$6,$7*
1,1,$1+$1,$8,$9*
0 Add four rect primitives between the rounded corners*
20,1,$1+$1,$2,$3,$4,$5,0*
20,1,$1+$1,$4,$5,$6,$7,0*
20,1,$1+$1,$6,$7,$8,$9,0*
20,1,$1+$1,$8,$9,$2,$3,0*%
G04 Aperture macros list end*
%ADD10RoundRect,0.237500X0.237500X-0.300000X0.237500X0.300000X-0.237500X0.300000X-0.237500X-0.300000X0*%
%ADD11RoundRect,0.162500X-0.162500X0.617500X-0.162500X-0.617500X0.162500X-0.617500X0.162500X0.617500X0*%
%ADD12RoundRect,0.237500X-0.300000X-0.237500X0.300000X-0.237500X0.300000X0.237500X-0.300000X0.237500X0*%
%ADD13RoundRect,0.237500X0.300000X0.237500X-0.300000X0.237500X-0.300000X-0.237500X0.300000X-0.237500X0*%
%ADD14RoundRect,0.237500X-0.237500X0.287500X-0.237500X-0.287500X0.237500X-0.287500X0.237500X0.287500X0*%
%ADD15RoundRect,0.250000X-0.350000X-0.450000X0.350000X-0.450000X0.350000X0.450000X-0.350000X0.450000X0*%
%ADD16R,0.300000X0.325000*%
%ADD17R,0.325000X0.300000*%
%ADD18RoundRect,0.237500X-0.237500X0.300000X-0.237500X-0.300000X0.237500X-0.300000X0.237500X0.300000X0*%
%ADD19RoundRect,0.237500X-0.237500X0.250000X-0.237500X-0.250000X0.237500X-0.250000X0.237500X0.250000X0*%
%ADD20RoundRect,0.062500X-0.475000X-0.062500X0.475000X-0.062500X0.475000X0.062500X-0.475000X0.062500X0*%
%ADD21RoundRect,0.062500X-0.062500X-0.475000X0.062500X-0.475000X0.062500X0.475000X-0.062500X0.475000X0*%
%ADD22RoundRect,0.237500X-0.250000X-0.237500X0.250000X-0.237500X0.250000X0.237500X-0.250000X0.237500X0*%
%ADD23RoundRect,0.237500X0.250000X0.237500X-0.250000X0.237500X-0.250000X-0.237500X0.250000X-0.237500X0*%
%ADD24RoundRect,0.162500X-0.617500X-0.162500X0.617500X-0.162500X0.617500X0.162500X-0.617500X0.162500X0*%
%ADD25RoundRect,0.200000X-0.200000X-0.800000X0.200000X-0.800000X0.200000X0.800000X-0.200000X0.800000X0*%
%ADD26R,1.400000X1.200000*%
%ADD27R,1.600000X0.550000*%
%ADD28R,0.550000X1.600000*%
%ADD29RoundRect,0.150000X0.587500X0.150000X-0.587500X0.150000X-0.587500X-0.150000X0.587500X-0.150000X0*%
%ADD30R,0.750000X0.650000*%
%ADD31RoundRect,0.062500X-0.187500X-0.062500X0.187500X-0.062500X0.187500X0.062500X-0.187500X0.062500X0*%
%ADD32RoundRect,0.250000X0.325000X0.450000X-0.325000X0.450000X-0.325000X-0.450000X0.325000X-0.450000X0*%
%ADD33RoundRect,0.237500X-0.287500X-0.237500X0.287500X-0.237500X0.287500X0.237500X-0.287500X0.237500X0*%
G04 APERTURE END LIST*
D10*
%TO.C,C30*%
X137668000Y-106780500D03*
X137668000Y-105055500D03*
%TD*%
D11*
%TO.C,U6*%
X124648000Y-108378000D03*
X123698000Y-108378000D03*
X122748000Y-108378000D03*
X122748000Y-111078000D03*
X124648000Y-111078000D03*
%TD*%
D12*
%TO.C,C12*%
X155093500Y-123698000D03*
X156818500Y-123698000D03*
%TD*%
D13*
%TO.C,C4*%
X145882500Y-122174000D03*
X144157500Y-122174000D03*
%TD*%
D14*
%TO.C,L1*%
X153045500Y-120059500D03*
X153045500Y-121809500D03*
%TD*%
D15*
%TO.C,R9*%
X130572000Y-132334000D03*
X132572000Y-132334000D03*
%TD*%
D12*
%TO.C,C20*%
X143409500Y-127000000D03*
X145134500Y-127000000D03*
%TD*%
D16*
%TO.C,U5*%
X140966000Y-126745500D03*
X140466000Y-126745500D03*
D17*
X139953500Y-127008000D03*
X139953500Y-127508000D03*
X139953500Y-128008000D03*
D16*
X140466000Y-128270500D03*
X140966000Y-128270500D03*
D17*
X141478500Y-128008000D03*
X141478500Y-127508000D03*
X141478500Y-127008000D03*
%TD*%
D18*
%TO.C,C2*%
X126746000Y-119533500D03*
X126746000Y-121258500D03*
%TD*%
D12*
%TO.C,C5*%
X150943500Y-116362500D03*
X152668500Y-116362500D03*
%TD*%
D10*
%TO.C,C16*%
X110236000Y-124814500D03*
X110236000Y-123089500D03*
%TD*%
D19*
%TO.C,R3*%
X150368000Y-112625500D03*
X150368000Y-114450500D03*
%TD*%
D12*
%TO.C,C9*%
X148489500Y-129947500D03*
X150214500Y-129947500D03*
%TD*%
%TO.C,C26*%
X104801500Y-118364000D03*
X106526500Y-118364000D03*
%TD*%
D20*
%TO.C,U2*%
X144749500Y-117110000D03*
X144749500Y-117610000D03*
X144749500Y-118110000D03*
X144749500Y-118610000D03*
X144749500Y-119110000D03*
D21*
X145812000Y-120172500D03*
X146312000Y-120172500D03*
X146812000Y-120172500D03*
X147312000Y-120172500D03*
X147812000Y-120172500D03*
D20*
X148874500Y-119110000D03*
X148874500Y-118610000D03*
X148874500Y-118110000D03*
X148874500Y-117610000D03*
X148874500Y-117110000D03*
D21*
X147812000Y-116047500D03*
X147312000Y-116047500D03*
X146812000Y-116047500D03*
X146312000Y-116047500D03*
X145812000Y-116047500D03*
%TD*%
D12*
%TO.C,C10*%
X155093500Y-121920000D03*
X156818500Y-121920000D03*
%TD*%
D22*
%TO.C,R7*%
X136247500Y-114554000D03*
X138072500Y-114554000D03*
%TD*%
D13*
%TO.C,C3*%
X119480500Y-130302000D03*
X117755500Y-130302000D03*
%TD*%
D18*
%TO.C,C28*%
X117094000Y-134011500D03*
X117094000Y-135736500D03*
%TD*%
D10*
%TO.C,C7*%
X144718000Y-113892500D03*
X144718000Y-112167500D03*
%TD*%
D18*
%TO.C,C11*%
X153162000Y-126291000D03*
X153162000Y-128016000D03*
%TD*%
D12*
%TO.C,C13*%
X156755000Y-118140500D03*
X158480000Y-118140500D03*
%TD*%
%TO.C,C8*%
X146711500Y-112044500D03*
X148436500Y-112044500D03*
%TD*%
D13*
%TO.C,C31*%
X142086500Y-104902000D03*
X140361500Y-104902000D03*
%TD*%
D10*
%TO.C,C25*%
X108712000Y-119734500D03*
X108712000Y-118009500D03*
%TD*%
%TO.C,C17*%
X115824000Y-113638500D03*
X115824000Y-111913500D03*
%TD*%
D14*
%TO.C,L2*%
X151013500Y-118281500D03*
X151013500Y-120031500D03*
%TD*%
D23*
%TO.C,R4*%
X150264500Y-124105500D03*
X148439500Y-124105500D03*
%TD*%
D24*
%TO.C,U7*%
X139874000Y-106746000D03*
X139874000Y-107696000D03*
X139874000Y-108646000D03*
X142574000Y-108646000D03*
X142574000Y-106746000D03*
%TD*%
D12*
%TO.C,C6*%
X146711500Y-113822500D03*
X148436500Y-113822500D03*
%TD*%
D22*
%TO.C,R13*%
X139803500Y-124714000D03*
X141628500Y-124714000D03*
%TD*%
D19*
%TO.C,R12*%
X136398000Y-128627500D03*
X136398000Y-130452500D03*
%TD*%
D12*
%TO.C,C1*%
X132741500Y-128270000D03*
X134466500Y-128270000D03*
%TD*%
D25*
%TO.C,SW1*%
X103310000Y-136652000D03*
X107510000Y-136652000D03*
%TD*%
D22*
%TO.C,R6*%
X135231500Y-112522000D03*
X137056500Y-112522000D03*
%TD*%
D19*
%TO.C,R5*%
X135382000Y-108307500D03*
X135382000Y-110132500D03*
%TD*%
D26*
%TO.C,Y1*%
X150960000Y-126303500D03*
X148760000Y-126303500D03*
X148760000Y-128003500D03*
X150960000Y-128003500D03*
%TD*%
D18*
%TO.C,C22*%
X126746000Y-112167500D03*
X126746000Y-113892500D03*
%TD*%
D27*
%TO.C,U1*%
X137346000Y-124720000D03*
X137346000Y-123920000D03*
X137346000Y-123120000D03*
X137346000Y-122320000D03*
X137346000Y-121520000D03*
X137346000Y-120720000D03*
X137346000Y-119920000D03*
X137346000Y-119120000D03*
D28*
X135896000Y-117670000D03*
X135096000Y-117670000D03*
X134296000Y-117670000D03*
X133496000Y-117670000D03*
X132696000Y-117670000D03*
X131896000Y-117670000D03*
X131096000Y-117670000D03*
X130296000Y-117670000D03*
D27*
X128846000Y-119120000D03*
X128846000Y-119920000D03*
X128846000Y-120720000D03*
X128846000Y-121520000D03*
X128846000Y-122320000D03*
X128846000Y-123120000D03*
X128846000Y-123920000D03*
X128846000Y-124720000D03*
D28*
X130296000Y-126170000D03*
X131096000Y-126170000D03*
X131896000Y-126170000D03*
X132696000Y-126170000D03*
X133496000Y-126170000D03*
X134296000Y-126170000D03*
X135096000Y-126170000D03*
X135896000Y-126170000D03*
%TD*%
D22*
%TO.C,R11*%
X125833500Y-130302000D03*
X127658500Y-130302000D03*
%TD*%
D29*
%TO.C,Q1*%
X141907500Y-112710000D03*
X141907500Y-110810000D03*
X140032500Y-111760000D03*
%TD*%
D23*
%TO.C,R8*%
X141882500Y-114554000D03*
X140057500Y-114554000D03*
%TD*%
D12*
%TO.C,C27*%
X146711500Y-110266500D03*
X148436500Y-110266500D03*
%TD*%
D30*
%TO.C,U4*%
X112842000Y-114008000D03*
X112842000Y-114808000D03*
D31*
X111892000Y-113658000D03*
X111892000Y-114158000D03*
X111892000Y-114658000D03*
X111892000Y-115158000D03*
X113792000Y-115158000D03*
X113792000Y-114658000D03*
X113792000Y-114158000D03*
X113792000Y-113658000D03*
%TD*%
D10*
%TO.C,C15*%
X113792000Y-126542250D03*
X113792000Y-124817250D03*
%TD*%
D30*
%TO.C,U8*%
X105476000Y-120492000D03*
X105476000Y-121292000D03*
D31*
X104526000Y-120142000D03*
X104526000Y-120642000D03*
X104526000Y-121142000D03*
X104526000Y-121642000D03*
X106426000Y-121642000D03*
X106426000Y-121142000D03*
X106426000Y-120642000D03*
X106426000Y-120142000D03*
%TD*%
D22*
%TO.C,R1*%
X121515500Y-130302000D03*
X123340500Y-130302000D03*
%TD*%
%TO.C,R2*%
X111101500Y-136652000D03*
X112926500Y-136652000D03*
%TD*%
D12*
%TO.C,C18*%
X111913500Y-111900000D03*
X113638500Y-111900000D03*
%TD*%
D30*
%TO.C,U3*%
X110998000Y-127057750D03*
X110998000Y-127857750D03*
D31*
X110048000Y-126707750D03*
X110048000Y-127207750D03*
X110048000Y-127707750D03*
X110048000Y-128207750D03*
X111948000Y-128207750D03*
X111948000Y-127707750D03*
X111948000Y-127207750D03*
X111948000Y-126707750D03*
%TD*%
D12*
%TO.C,C19*%
X143409500Y-125222000D03*
X145134500Y-125222000D03*
%TD*%
D32*
%TO.C,D2*%
X132597000Y-135128000D03*
X130547000Y-135128000D03*
%TD*%
D15*
%TO.C,R10*%
X107458000Y-132334000D03*
X109458000Y-132334000D03*
%TD*%
D18*
%TO.C,C21*%
X126746000Y-108357500D03*
X126746000Y-110082500D03*
%TD*%
D10*
%TO.C,C14*%
X160411500Y-118210500D03*
X160411500Y-116485500D03*
%TD*%
D33*
%TO.C,L3*%
X152932500Y-118140500D03*
X154682500Y-118140500D03*
%TD*%
M02*
