%TF.GenerationSoftware,KiCad,Pcbnew,8.0.7*%
%TF.CreationDate,2025-06-14T22:59:42+12:00*%
%TF.ProjectId,heli_avionics,68656c69-5f61-4766-996f-6e6963732e6b,rev?*%
%TF.SameCoordinates,Original*%
%TF.FileFunction,Soldermask,Bot*%
%TF.FilePolarity,Negative*%
%FSLAX46Y46*%
G04 Gerber Fmt 4.6, Leading zero omitted, Abs format (unit mm)*
G04 Created by KiCad (PCBNEW 8.0.7) date 2025-06-14 22:59:42*
%MOMM*%
%LPD*%
G01*
G04 APERTURE LIST*
G04 Aperture macros list*
%AMRoundRect*
0 Rectangle with rounded corners*
0 $1 Rounding radius*
0 $2 $3 $4 $5 $6 $7 $8 $9 X,Y pos of 4 corners*
0 Add a 4 corners polygon primitive as box body*
4,1,4,$2,$3,$4,$5,$6,$7,$8,$9,$2,$3,0*
0 Add four circle primitives for the rounded corners*
1,1,$1+$1,$2,$3*
1,1,$1+$1,$4,$5*
1,1,$1+$1,$6,$7*
1,1,$1+$1,$8,$9*
0 Add four rect primitives between the rounded corners*
20,1,$1+$1,$2,$3,$4,$5,0*
20,1,$1+$1,$4,$5,$6,$7,0*
20,1,$1+$1,$6,$7,$8,$9,0*
20,1,$1+$1,$8,$9,$2,$3,0*%
G04 Aperture macros list end*
%ADD10C,0.010000*%
%ADD11RoundRect,0.250000X0.625000X-0.350000X0.625000X0.350000X-0.625000X0.350000X-0.625000X-0.350000X0*%
%ADD12O,1.750000X1.200000*%
%ADD13RoundRect,0.250002X-1.699998X-1.699998X1.699998X-1.699998X1.699998X1.699998X-1.699998X1.699998X0*%
%ADD14R,1.700000X1.700000*%
%ADD15O,1.700000X1.700000*%
%ADD16RoundRect,0.250000X-0.600000X-0.750000X0.600000X-0.750000X0.600000X0.750000X-0.600000X0.750000X0*%
%ADD17O,1.700000X2.000000*%
%ADD18RoundRect,0.225000X0.225000X0.425000X-0.225000X0.425000X-0.225000X-0.425000X0.225000X-0.425000X0*%
%ADD19O,0.900000X1.300000*%
%ADD20RoundRect,0.250000X0.750000X-0.600000X0.750000X0.600000X-0.750000X0.600000X-0.750000X-0.600000X0*%
%ADD21O,2.000000X1.700000*%
%ADD22C,2.000000*%
%ADD23RoundRect,0.250001X-0.799999X-0.799999X0.799999X-0.799999X0.799999X0.799999X-0.799999X0.799999X0*%
%ADD24R,1.600000X1.600000*%
%ADD25C,1.600000*%
%ADD26R,2.000000X2.000000*%
G04 APERTURE END LIST*
D10*
X105026000Y-120092000D02*
X105926000Y-120092000D01*
X105926000Y-121692000D01*
X105026000Y-121692000D01*
X105026000Y-120092000D01*
G36*
X105026000Y-120092000D02*
G01*
X105926000Y-120092000D01*
X105926000Y-121692000D01*
X105026000Y-121692000D01*
X105026000Y-120092000D01*
G37*
X110548000Y-126657750D02*
X111448000Y-126657750D01*
X111448000Y-128257750D01*
X110548000Y-128257750D01*
X110548000Y-126657750D01*
G36*
X110548000Y-126657750D02*
G01*
X111448000Y-126657750D01*
X111448000Y-128257750D01*
X110548000Y-128257750D01*
X110548000Y-126657750D01*
G37*
X112392000Y-113608000D02*
X113292000Y-113608000D01*
X113292000Y-115208000D01*
X112392000Y-115208000D01*
X112392000Y-113608000D01*
G36*
X112392000Y-113608000D02*
G01*
X113292000Y-113608000D01*
X113292000Y-115208000D01*
X112392000Y-115208000D01*
X112392000Y-113608000D01*
G37*
D11*
%TO.C,J5*%
X130810000Y-113538000D03*
D12*
X130810000Y-111538000D03*
X130810000Y-109538000D03*
%TD*%
D13*
%TO.C,J6*%
X121412000Y-103886000D03*
%TD*%
D14*
%TO.C,J9*%
X141986000Y-132334000D03*
D15*
X139446000Y-132334000D03*
%TD*%
D16*
%TO.C,J4*%
X103398000Y-112522000D03*
D17*
X105898000Y-112522000D03*
%TD*%
D18*
%TO.C,J7*%
X104140000Y-131826000D03*
D19*
X102890000Y-131826000D03*
%TD*%
D20*
%TO.C,J3*%
X103632000Y-106426000D03*
D21*
X103632000Y-103926000D03*
%TD*%
D11*
%TO.C,J2*%
X102870000Y-127476000D03*
D12*
X102870000Y-125476000D03*
%TD*%
D22*
%TO.C,H1*%
X112000000Y-119500000D03*
%TD*%
D23*
%TO.C,AE1*%
X163068000Y-118110000D03*
%TD*%
D13*
%TO.C,J8*%
X128270000Y-103886000D03*
%TD*%
D14*
%TO.C,J10*%
X135636000Y-134366000D03*
%TD*%
D24*
%TO.C,C23*%
X116332000Y-122377750D03*
D25*
X118832000Y-122377750D03*
%TD*%
D22*
%TO.C,H2*%
X123700000Y-115200000D03*
%TD*%
D26*
%TO.C,C24*%
X115905677Y-105664000D03*
D22*
X110905677Y-105664000D03*
%TD*%
D14*
%TO.C,J1*%
X126223000Y-132837000D03*
D15*
X126223000Y-135377000D03*
X123683000Y-132837000D03*
X123683000Y-135377000D03*
X121143000Y-132837000D03*
X121143000Y-135377000D03*
%TD*%
D22*
%TO.C,H3*%
X123700000Y-123800000D03*
%TD*%
M02*
