M48
INCH
T1C0.0098
T2C0.0118
T3C0.0157
T4C0.0197
T5C0.0295
T6C0.0315
T7C0.0394
T8C0.0433
T9C0.0689
%
G90
G05
T1
X4.1526Y-4.7414
X4.1526Y-4.778
X4.37Y-4.9999
X4.37Y-5.0365
X4.4426Y-4.4861
X4.4426Y-4.5228
X5.7721Y-4.6421
X5.8076Y-4.6421
X5.8076Y-4.6776
T2
X4.11Y-5.38
X4.28Y-4.76
X4.32Y-4.74
X4.49Y-4.68
X4.51Y-4.71
X4.62Y-5.17
X4.82Y-4.32
X4.86Y-4.32
X5.22Y-5.37
X5.25Y-5.17
X5.27Y-4.85
X5.2886Y-4.8858
X5.29Y-4.92
X5.29Y-5.17
X5.3Y-4.838
X5.3181Y-4.8843
X5.32Y-4.9175
X5.3524Y-4.8157
X5.3628Y-4.8472
X5.42Y-4.98
X5.45Y-4.31
X5.45Y-4.99
X5.46Y-4.88
X5.49Y-4.31
X5.49Y-4.76
X5.4925Y-4.8693
X5.5161Y-4.7839
X5.5465Y-5.0835
X5.58Y-5.08
X5.6Y-5.05
X5.6004Y-4.676
X5.63Y-4.51
X5.64Y-4.36
X5.64Y-4.68
T3
X4.108Y-4.849
X4.125Y-4.82
X4.1323Y-4.4921
X4.143Y-4.849
X4.15Y-4.07
X4.15Y-4.13
X4.15Y-4.55
X4.15Y-4.59
X4.16Y-4.819
X4.1661Y-4.4886
X4.17Y-4.1
X4.17Y-4.69
X4.19Y-4.14
X4.19Y-4.55
X4.19Y-4.59
X4.2004Y-4.4878
X4.2165Y-4.4583
X4.24Y-4.68
X4.3Y-4.87
X4.3274Y-5.1083
X4.3444Y-5.0793
X4.348Y-4.26
X4.3624Y-5.1083
X4.365Y-4.231
X4.3794Y-5.0783
X4.383Y-4.26
X4.4Y-4.23
X4.403Y-4.589
X4.42Y-4.56
X4.438Y-4.589
X4.45Y-4.28
X4.45Y-4.4455
X4.455Y-4.559
X4.48Y-4.26
X4.48Y-4.3
X4.48Y-5.27
X4.49Y-4.59
X4.5Y-4.63
X4.5Y-4.833
X4.51Y-4.28
X4.52Y-4.87
X4.52Y-4.918
X4.523Y-4.802
X4.533Y-4.433
X4.55Y-4.51
X4.56Y-4.88
X4.58Y-4.53
X4.67Y-4.28
X4.67Y-4.32
X4.7Y-4.38
X4.73Y-4.51
X4.73Y-5.18
X4.734Y-4.854
X4.74Y-4.37
X4.7694Y-4.5
X4.7694Y-4.89
X4.86Y-4.21
X4.94Y-4.07
X4.94Y-4.12
X4.95Y-4.33
X4.95Y-4.46
X5.01Y-4.2
X5.05Y-4.2
X5.05Y-4.48
X5.09Y-4.2
X5.125Y-4.765
X5.15Y-4.72
X5.16Y-4.07
X5.16Y-4.12
X5.18Y-4.7
X5.2557Y-4.91
X5.43Y-4.09
X5.44Y-4.26
X5.48Y-4.13
X5.5Y-4.96
X5.6294Y-4.81
X5.63Y-4.87
X5.67Y-4.86
X5.69Y-4.3688
X5.71Y-4.89
X5.71Y-5.04
X5.72Y-4.58
X5.84Y-4.53
X5.86Y-4.936
X5.9Y-4.34
X5.9Y-4.38
X5.96Y-5.116
X5.97Y-4.43
X5.98Y-5.086
X6.02Y-5.086
X6.0612Y-4.5812
X6.22Y-4.8
X6.22Y-4.87
X6.28Y-4.58
T4
X4.0508Y-5.19
X4.1Y-5.19
T5
X4.05Y-4.94
X4.05Y-5.0187
X5.15Y-4.3125
X5.15Y-4.3913
X5.15Y-4.47
T6
X4.58Y-4.818
X4.6784Y-4.818
T7
X4.0708Y-4.43
X4.08Y-4.0916
X4.08Y-4.19
X4.1692Y-4.43
X4.3664Y-4.16
X4.5632Y-4.16
X4.7694Y-5.2298
X4.7694Y-5.3298
X4.8694Y-5.2298
X4.8694Y-5.3298
X4.9694Y-5.2298
X4.9694Y-5.3298
X5.34Y-5.29
X5.49Y-5.21
X5.59Y-5.21
T8
X6.42Y-4.65
T9
X4.78Y-4.09
X5.05Y-4.09
M30
