%TF.GenerationSoftware,KiCad,Pcbnew,8.0.7*%
%TF.CreationDate,2025-06-14T22:59:42+12:00*%
%TF.ProjectId,heli_avionics,68656c69-5f61-4766-996f-6e6963732e6b,rev?*%
%TF.SameCoordinates,Original*%
%TF.FileFunction,Soldermask,Top*%
%TF.FilePolarity,Negative*%
%FSLAX46Y46*%
G04 Gerber Fmt 4.6, Leading zero omitted, Abs format (unit mm)*
G04 Created by KiCad (PCBNEW 8.0.7) date 2025-06-14 22:59:42*
%MOMM*%
%LPD*%
G01*
G04 APERTURE LIST*
G04 Aperture macros list*
%AMRoundRect*
0 Rectangle with rounded corners*
0 $1 Rounding radius*
0 $2 $3 $4 $5 $6 $7 $8 $9 X,Y pos of 4 corners*
0 Add a 4 corners polygon primitive as box body*
4,1,4,$2,$3,$4,$5,$6,$7,$8,$9,$2,$3,0*
0 Add four circle primitives for the rounded corners*
1,1,$1+$1,$2,$3*
1,1,$1+$1,$4,$5*
1,1,$1+$1,$6,$7*
1,1,$1+$1,$8,$9*
0 Add four rect primitives between the rounded corners*
20,1,$1+$1,$2,$3,$4,$5,0*
20,1,$1+$1,$4,$5,$6,$7,0*
20,1,$1+$1,$6,$7,$8,$9,0*
20,1,$1+$1,$8,$9,$2,$3,0*%
G04 Aperture macros list end*
%ADD10RoundRect,0.237500X0.237500X-0.300000X0.237500X0.300000X-0.237500X0.300000X-0.237500X-0.300000X0*%
%ADD11RoundRect,0.162500X-0.162500X0.617500X-0.162500X-0.617500X0.162500X-0.617500X0.162500X0.617500X0*%
%ADD12RoundRect,0.237500X-0.300000X-0.237500X0.300000X-0.237500X0.300000X0.237500X-0.300000X0.237500X0*%
%ADD13RoundRect,0.237500X0.300000X0.237500X-0.300000X0.237500X-0.300000X-0.237500X0.300000X-0.237500X0*%
%ADD14RoundRect,0.237500X-0.237500X0.287500X-0.237500X-0.287500X0.237500X-0.287500X0.237500X0.287500X0*%
%ADD15RoundRect,0.250000X0.625000X-0.350000X0.625000X0.350000X-0.625000X0.350000X-0.625000X-0.350000X0*%
%ADD16O,1.750000X1.200000*%
%ADD17RoundRect,0.250002X-1.699998X-1.699998X1.699998X-1.699998X1.699998X1.699998X-1.699998X1.699998X0*%
%ADD18RoundRect,0.250000X-0.350000X-0.450000X0.350000X-0.450000X0.350000X0.450000X-0.350000X0.450000X0*%
%ADD19R,1.700000X1.700000*%
%ADD20O,1.700000X1.700000*%
%ADD21RoundRect,0.025400X-0.150000X-0.162500X0.150000X-0.162500X0.150000X0.162500X-0.150000X0.162500X0*%
%ADD22RoundRect,0.025400X-0.162500X-0.150000X0.162500X-0.150000X0.162500X0.150000X-0.162500X0.150000X0*%
%ADD23RoundRect,0.237500X-0.237500X0.300000X-0.237500X-0.300000X0.237500X-0.300000X0.237500X0.300000X0*%
%ADD24RoundRect,0.250000X-0.600000X-0.750000X0.600000X-0.750000X0.600000X0.750000X-0.600000X0.750000X0*%
%ADD25O,1.700000X2.000000*%
%ADD26RoundRect,0.237500X-0.237500X0.250000X-0.237500X-0.250000X0.237500X-0.250000X0.237500X0.250000X0*%
%ADD27C,1.500000*%
%ADD28RoundRect,0.062500X-0.475000X-0.062500X0.475000X-0.062500X0.475000X0.062500X-0.475000X0.062500X0*%
%ADD29RoundRect,0.062500X-0.062500X-0.475000X0.062500X-0.475000X0.062500X0.475000X-0.062500X0.475000X0*%
%ADD30RoundRect,0.237500X-0.250000X-0.237500X0.250000X-0.237500X0.250000X0.237500X-0.250000X0.237500X0*%
%ADD31RoundRect,0.225000X0.225000X0.425000X-0.225000X0.425000X-0.225000X-0.425000X0.225000X-0.425000X0*%
%ADD32O,0.900000X1.300000*%
%ADD33RoundRect,0.250000X0.750000X-0.600000X0.750000X0.600000X-0.750000X0.600000X-0.750000X-0.600000X0*%
%ADD34O,2.000000X1.700000*%
%ADD35R,1.500000X1.500000*%
%ADD36C,2.000000*%
%ADD37RoundRect,0.237500X0.250000X0.237500X-0.250000X0.237500X-0.250000X-0.237500X0.250000X-0.237500X0*%
%ADD38RoundRect,0.250001X-0.799999X-0.799999X0.799999X-0.799999X0.799999X0.799999X-0.799999X0.799999X0*%
%ADD39RoundRect,0.162500X-0.617500X-0.162500X0.617500X-0.162500X0.617500X0.162500X-0.617500X0.162500X0*%
%ADD40RoundRect,0.200000X-0.200000X-0.800000X0.200000X-0.800000X0.200000X0.800000X-0.200000X0.800000X0*%
%ADD41R,1.400000X1.200000*%
%ADD42R,1.600000X1.600000*%
%ADD43C,1.600000*%
%ADD44R,1.600000X0.550000*%
%ADD45R,0.550000X1.600000*%
%ADD46RoundRect,0.150000X0.587500X0.150000X-0.587500X0.150000X-0.587500X-0.150000X0.587500X-0.150000X0*%
%ADD47RoundRect,0.075200X-0.200200X-0.075200X0.200200X-0.075200X0.200200X0.075200X-0.200200X0.075200X0*%
%ADD48RoundRect,0.025400X-0.450000X-0.800000X0.450000X-0.800000X0.450000X0.800000X-0.450000X0.800000X0*%
%ADD49RoundRect,0.250000X0.325000X0.450000X-0.325000X0.450000X-0.325000X-0.450000X0.325000X-0.450000X0*%
%ADD50R,2.000000X2.000000*%
%ADD51RoundRect,0.237500X-0.287500X-0.237500X0.287500X-0.237500X0.287500X0.237500X-0.287500X0.237500X0*%
G04 APERTURE END LIST*
D10*
%TO.C,C30*%
X137668000Y-106780500D03*
X137668000Y-105055500D03*
%TD*%
D11*
%TO.C,U6*%
X124648000Y-108378000D03*
X123698000Y-108378000D03*
X122748000Y-108378000D03*
X122748000Y-111078000D03*
X124648000Y-111078000D03*
%TD*%
D12*
%TO.C,C12*%
X155093500Y-123698000D03*
X156818500Y-123698000D03*
%TD*%
D13*
%TO.C,C4*%
X145882500Y-122174000D03*
X144157500Y-122174000D03*
%TD*%
D14*
%TO.C,L1*%
X153045500Y-120059500D03*
X153045500Y-121809500D03*
%TD*%
D15*
%TO.C,J5*%
X130810000Y-113538000D03*
D16*
X130810000Y-111538000D03*
X130810000Y-109538000D03*
%TD*%
D17*
%TO.C,J6*%
X121412000Y-103886000D03*
%TD*%
D18*
%TO.C,R9*%
X130572000Y-132334000D03*
X132572000Y-132334000D03*
%TD*%
D19*
%TO.C,J9*%
X141986000Y-132334000D03*
D20*
X139446000Y-132334000D03*
%TD*%
D12*
%TO.C,C20*%
X143409500Y-127000000D03*
X145134500Y-127000000D03*
%TD*%
D21*
%TO.C,U5*%
X140966000Y-126745500D03*
X140466000Y-126745500D03*
D22*
X139953500Y-127008000D03*
X139953500Y-127508000D03*
X139953500Y-128008000D03*
D21*
X140466000Y-128270500D03*
X140966000Y-128270500D03*
D22*
X141478500Y-128008000D03*
X141478500Y-127508000D03*
X141478500Y-127008000D03*
%TD*%
D23*
%TO.C,C2*%
X126746000Y-119533500D03*
X126746000Y-121258500D03*
%TD*%
D12*
%TO.C,C5*%
X150943500Y-116362500D03*
X152668500Y-116362500D03*
%TD*%
D10*
%TO.C,C16*%
X110236000Y-124814500D03*
X110236000Y-123089500D03*
%TD*%
D24*
%TO.C,J4*%
X103398000Y-112522000D03*
D25*
X105898000Y-112522000D03*
%TD*%
D26*
%TO.C,R3*%
X150368000Y-112625500D03*
X150368000Y-114450500D03*
%TD*%
D12*
%TO.C,C9*%
X148489500Y-129947500D03*
X150214500Y-129947500D03*
%TD*%
%TO.C,C26*%
X104801500Y-118364000D03*
X106526500Y-118364000D03*
%TD*%
D27*
%TO.C,TP2*%
X119634000Y-113030000D03*
%TD*%
D28*
%TO.C,U2*%
X144749500Y-117110000D03*
X144749500Y-117610000D03*
X144749500Y-118110000D03*
X144749500Y-118610000D03*
X144749500Y-119110000D03*
D29*
X145812000Y-120172500D03*
X146312000Y-120172500D03*
X146812000Y-120172500D03*
X147312000Y-120172500D03*
X147812000Y-120172500D03*
D28*
X148874500Y-119110000D03*
X148874500Y-118610000D03*
X148874500Y-118110000D03*
X148874500Y-117610000D03*
X148874500Y-117110000D03*
D29*
X147812000Y-116047500D03*
X147312000Y-116047500D03*
X146812000Y-116047500D03*
X146312000Y-116047500D03*
X145812000Y-116047500D03*
%TD*%
D12*
%TO.C,C10*%
X155093500Y-121920000D03*
X156818500Y-121920000D03*
%TD*%
D30*
%TO.C,R7*%
X136247500Y-114554000D03*
X138072500Y-114554000D03*
%TD*%
D31*
%TO.C,J7*%
X104140000Y-131826000D03*
D32*
X102890000Y-131826000D03*
%TD*%
D13*
%TO.C,C3*%
X119480500Y-130302000D03*
X117755500Y-130302000D03*
%TD*%
D23*
%TO.C,C28*%
X117094000Y-134011500D03*
X117094000Y-135736500D03*
%TD*%
D10*
%TO.C,C7*%
X144718000Y-113892500D03*
X144718000Y-112167500D03*
%TD*%
D27*
%TO.C,TP4*%
X112268000Y-133858000D03*
%TD*%
D23*
%TO.C,C11*%
X153162000Y-126291000D03*
X153162000Y-128016000D03*
%TD*%
D33*
%TO.C,J3*%
X103632000Y-106426000D03*
D34*
X103632000Y-103926000D03*
%TD*%
D12*
%TO.C,C13*%
X156755000Y-118140500D03*
X158480000Y-118140500D03*
%TD*%
D15*
%TO.C,J2*%
X102870000Y-127476000D03*
D16*
X102870000Y-125476000D03*
%TD*%
D12*
%TO.C,C8*%
X146711500Y-112044500D03*
X148436500Y-112044500D03*
%TD*%
D35*
%TO.C,TP3*%
X147828000Y-107442000D03*
%TD*%
D13*
%TO.C,C31*%
X142086500Y-104902000D03*
X140361500Y-104902000D03*
%TD*%
D10*
%TO.C,C25*%
X108712000Y-119734500D03*
X108712000Y-118009500D03*
%TD*%
D36*
%TO.C,H1*%
X112000000Y-119500000D03*
%TD*%
D10*
%TO.C,C17*%
X115824000Y-113638500D03*
X115824000Y-111913500D03*
%TD*%
D14*
%TO.C,L2*%
X151013500Y-118281500D03*
X151013500Y-120031500D03*
%TD*%
D37*
%TO.C,R4*%
X150264500Y-124105500D03*
X148439500Y-124105500D03*
%TD*%
D38*
%TO.C,AE1*%
X163068000Y-118110000D03*
%TD*%
D17*
%TO.C,J8*%
X128270000Y-103886000D03*
%TD*%
D19*
%TO.C,J10*%
X135636000Y-134366000D03*
%TD*%
D39*
%TO.C,U7*%
X139874000Y-106746000D03*
X139874000Y-107696000D03*
X139874000Y-108646000D03*
X142574000Y-108646000D03*
X142574000Y-106746000D03*
%TD*%
D12*
%TO.C,C6*%
X146711500Y-113822500D03*
X148436500Y-113822500D03*
%TD*%
D30*
%TO.C,R13*%
X139803500Y-124714000D03*
X141628500Y-124714000D03*
%TD*%
D26*
%TO.C,R12*%
X136398000Y-128627500D03*
X136398000Y-130452500D03*
%TD*%
D12*
%TO.C,C1*%
X132741500Y-128270000D03*
X134466500Y-128270000D03*
%TD*%
D40*
%TO.C,SW1*%
X103310000Y-136652000D03*
X107510000Y-136652000D03*
%TD*%
D30*
%TO.C,R6*%
X135231500Y-112522000D03*
X137056500Y-112522000D03*
%TD*%
D26*
%TO.C,R5*%
X135382000Y-108307500D03*
X135382000Y-110132500D03*
%TD*%
D35*
%TO.C,TP1*%
X133096000Y-105410000D03*
%TD*%
D41*
%TO.C,Y1*%
X150960000Y-126303500D03*
X148760000Y-126303500D03*
X148760000Y-128003500D03*
X150960000Y-128003500D03*
%TD*%
D23*
%TO.C,C22*%
X126746000Y-112167500D03*
X126746000Y-113892500D03*
%TD*%
D42*
%TO.C,C23*%
X116332000Y-122377750D03*
D43*
X118832000Y-122377750D03*
%TD*%
D44*
%TO.C,U1*%
X137346000Y-124720000D03*
X137346000Y-123920000D03*
X137346000Y-123120000D03*
X137346000Y-122320000D03*
X137346000Y-121520000D03*
X137346000Y-120720000D03*
X137346000Y-119920000D03*
X137346000Y-119120000D03*
D45*
X135896000Y-117670000D03*
X135096000Y-117670000D03*
X134296000Y-117670000D03*
X133496000Y-117670000D03*
X132696000Y-117670000D03*
X131896000Y-117670000D03*
X131096000Y-117670000D03*
X130296000Y-117670000D03*
D44*
X128846000Y-119120000D03*
X128846000Y-119920000D03*
X128846000Y-120720000D03*
X128846000Y-121520000D03*
X128846000Y-122320000D03*
X128846000Y-123120000D03*
X128846000Y-123920000D03*
X128846000Y-124720000D03*
D45*
X130296000Y-126170000D03*
X131096000Y-126170000D03*
X131896000Y-126170000D03*
X132696000Y-126170000D03*
X133496000Y-126170000D03*
X134296000Y-126170000D03*
X135096000Y-126170000D03*
X135896000Y-126170000D03*
%TD*%
D30*
%TO.C,R11*%
X125833500Y-130302000D03*
X127658500Y-130302000D03*
%TD*%
D46*
%TO.C,Q1*%
X141907500Y-112710000D03*
X141907500Y-110810000D03*
X140032500Y-111760000D03*
%TD*%
D37*
%TO.C,R8*%
X141882500Y-114554000D03*
X140057500Y-114554000D03*
%TD*%
D12*
%TO.C,C27*%
X146711500Y-110266500D03*
X148436500Y-110266500D03*
%TD*%
D47*
%TO.C,U4*%
X111892000Y-113658000D03*
X111892000Y-114158000D03*
X111892000Y-114658000D03*
X111892000Y-115158000D03*
X113792000Y-115158000D03*
X113792000Y-114658000D03*
X113792000Y-114158000D03*
X113792000Y-113658000D03*
D48*
X112842000Y-114408000D03*
%TD*%
D10*
%TO.C,C15*%
X113792000Y-126542250D03*
X113792000Y-124817250D03*
%TD*%
D36*
%TO.C,H2*%
X123700000Y-115200000D03*
%TD*%
D47*
%TO.C,U8*%
X104526000Y-120142000D03*
X104526000Y-120642000D03*
X104526000Y-121142000D03*
X104526000Y-121642000D03*
X106426000Y-121642000D03*
X106426000Y-121142000D03*
X106426000Y-120642000D03*
X106426000Y-120142000D03*
D48*
X105476000Y-120892000D03*
%TD*%
D30*
%TO.C,R1*%
X121515500Y-130302000D03*
X123340500Y-130302000D03*
%TD*%
%TO.C,R2*%
X111101500Y-136652000D03*
X112926500Y-136652000D03*
%TD*%
D12*
%TO.C,C18*%
X111913500Y-111900000D03*
X113638500Y-111900000D03*
%TD*%
D47*
%TO.C,U3*%
X110048000Y-126707750D03*
X110048000Y-127207750D03*
X110048000Y-127707750D03*
X110048000Y-128207750D03*
X111948000Y-128207750D03*
X111948000Y-127707750D03*
X111948000Y-127207750D03*
X111948000Y-126707750D03*
D48*
X110998000Y-127457750D03*
%TD*%
D12*
%TO.C,C19*%
X143409500Y-125222000D03*
X145134500Y-125222000D03*
%TD*%
D49*
%TO.C,D2*%
X132597000Y-135128000D03*
X130547000Y-135128000D03*
%TD*%
D50*
%TO.C,C24*%
X115905677Y-105664000D03*
D36*
X110905677Y-105664000D03*
%TD*%
D19*
%TO.C,J1*%
X126223000Y-132837000D03*
D20*
X126223000Y-135377000D03*
X123683000Y-132837000D03*
X123683000Y-135377000D03*
X121143000Y-132837000D03*
X121143000Y-135377000D03*
%TD*%
D36*
%TO.C,H3*%
X123700000Y-123800000D03*
%TD*%
D18*
%TO.C,R10*%
X107458000Y-132334000D03*
X109458000Y-132334000D03*
%TD*%
D23*
%TO.C,C21*%
X126746000Y-108357500D03*
X126746000Y-110082500D03*
%TD*%
D10*
%TO.C,C14*%
X160411500Y-118210500D03*
X160411500Y-116485500D03*
%TD*%
D51*
%TO.C,L3*%
X152932500Y-118140500D03*
X154682500Y-118140500D03*
%TD*%
M02*
